<?xml version="1.0" standalone="no"?>
<!DOCTYPE svg PUBLIC "-//W3C//DTD SVG 20010904//EN"
 "http://www.w3.org/TR/2001/REC-SVG-20010904/DTD/svg10.dtd">
<svg version="1.0" xmlns="http://www.w3.org/2000/svg"
 width="1024.000000pt" height="1024.000000pt" viewBox="0 0 1024.000000 1024.000000"
 preserveAspectRatio="xMidYMid meet">

<g transform="translate(0.000000,1024.000000) scale(0.100000,-0.100000)"
fill="#000000" stroke="none">
<path d="M0 5120 l0 -5120 5120 0 5120 0 0 5120 0 5120 -5120 0 -5120 0 0
-5120z m5485 3456 c122 -26 226 -57 325 -96 72 -28 140 -62 140 -69 -1 -3 -15
-15 -33 -26 -37 -23 -76 -78 -84 -118 -3 -15 -10 -30 -14 -33 -5 -3 -39 6 -75
21 -212 85 -476 130 -709 122 -472 -16 -870 -186 -1203 -511 -308 -301 -505
-700 -563 -1141 -16 -127 -6 -402 20 -540 63 -337 231 -663 477 -927 131 -141
204 -203 369 -313 163 -109 305 -167 546 -225 307 -72 579 -61 883 37 208 67
426 196 598 353 42 38 78 70 80 70 2 0 3 -56 3 -124 l0 -125 -35 -35 c-84 -87
-319 -228 -502 -300 -118 -46 -313 -94 -455 -112 -418 -51 -917 72 -1276 315
-464 313 -797 802 -902 1326 -91 457 -24 925 192 1348 134 262 312 486 539
677 208 176 469 310 757 389 207 58 323 71 587 66 183 -3 233 -7 335 -29z
m1238 -122 c170 -44 331 -175 412 -334 121 -239 70 -558 -119 -746 -130 -129
-265 -185 -446 -185 -121 -1 -205 21 -306 77 -127 70 -250 222 -296 366 -26
81 -36 264 -18 339 55 234 236 425 460 483 75 20 237 20 313 0z m-1936 -1091
c-4 -346 -8 -902 -9 -1238 -1 -335 -4 -539 -5 -452 -3 120 -7 157 -16 154 -6
-2 -12 -16 -11 -30 0 -31 -21 -37 -23 -7 -1 11 2 18 7 15 6 -3 7 1 3 10 -4 12
-8 13 -13 5 -5 -8 -9 -7 -13 4 -6 14 -10 14 -31 -5 -21 -18 -23 -26 -15 -43 9
-17 7 -17 -9 3 -13 16 -25 22 -36 18 -9 -4 -15 -3 -12 2 3 4 -4 8 -16 7 -15
-1 -24 -9 -28 -25 -5 -21 -7 -22 -19 -7 -11 13 -11 17 1 21 24 9 18 37 -6 31
-12 -3 -27 -6 -34 -6 -7 0 -11 -4 -8 -8 2 -4 1 -14 -5 -22 -7 -13 -9 -12 -9 3
0 9 -7 17 -16 17 -8 0 -13 -4 -10 -9 3 -4 -3 -16 -13 -25 -18 -17 -20 -16 -31
1 -10 16 -10 16 -5 -4 4 -14 2 -23 -4 -23 -6 0 -11 7 -11 15 0 9 -9 15 -22 15
-19 0 -20 -2 -8 -11 12 -9 11 -10 -7 -6 -13 3 -23 1 -23 -4 0 -5 -7 -9 -16 -9
-8 0 -13 4 -10 9 3 5 -6 9 -19 9 -14 0 -28 -4 -31 -9 -3 -5 2 -6 10 -3 9 3 16
1 16 -5 0 -6 -11 -10 -24 -9 -14 1 -22 7 -19 15 3 8 -3 11 -17 8 -31 -6 -37
-14 -20 -25 8 -6 12 -10 8 -11 -37 -7 -68 -20 -68 -29 0 -12 -40 -24 -69 -21
-13 2 -21 -2 -17 -7 3 -5 -1 -15 -9 -22 -12 -10 -15 -10 -15 1 0 8 -5 7 -13
-5 -12 -16 -13 -15 -13 8 0 24 6 28 56 42 90 25 85 13 86 175 l0 144 -5 -140
-6 -140 -95 -32 c-52 -17 -98 -32 -102 -32 -4 -1 -9 59 -11 132 l-3 132 0
-137 c1 -113 -2 -139 -14 -144 -8 -4 -19 -6 -24 -5 -5 1 -6 -5 -3 -13 4 -11 1
-13 -10 -9 -13 5 -15 2 -10 -11 6 -15 3 -17 -13 -13 -18 4 -24 -3 -22 -24 1
-3 -16 -3 -36 0 -33 6 -38 10 -43 41 -4 19 -8 -44 -10 -140 -3 -174 -4 -174
-9 85 -8 397 -11 1790 -4 1808 3 9 101 70 217 137 117 66 352 201 522 300 171
98 314 179 319 179 6 1 7 -250 3 -626z m83 581 c0 -2 -9 0 -20 6 -11 6 -20 13
-20 16 0 2 9 0 20 -6 11 -6 20 -13 20 -16z m2743 -483 c19 -56 78 -113 133
-131 19 -7 34 -15 34 -19 0 -4 -20 -12 -44 -19 -60 -16 -99 -52 -127 -117 -13
-30 -26 -55 -29 -55 -3 0 -11 19 -18 43 -20 73 -46 106 -97 119 -25 7 -45 15
-45 19 0 4 23 20 50 35 43 23 55 37 80 90 17 34 30 67 30 73 0 27 17 7 33 -38z
m-2440 -175 l57 -26 0 -136 0 -136 -25 6 c-14 4 -60 23 -102 44 l-78 37 -3
124 c-1 69 0 131 2 138 5 13 8 12 149 -51z m363 -157 l94 -42 0 -134 c0 -155
13 -145 -117 -88 l-78 34 -3 135 c-1 75 0 136 4 136 3 0 48 -19 100 -41z
m1204 -204 l0 -65 -50 0 -50 0 0 -278 0 -278 70 -69 c39 -38 70 -76 70 -85 0
-8 -44 -59 -97 -113 l-98 -97 84 -81 84 -80 -57 -58 -58 -58 7 -449 8 -449
-52 -62 c-29 -35 -54 -63 -55 -63 -1 0 -26 28 -56 62 l-55 62 -5 1030 -5 1030
-40 12 -40 11 -3 71 -3 72 201 0 200 0 0 -65z m1333 -56 c17 -23 18 -31 8 -62
-7 -19 -19 -38 -27 -41 -9 -3 -254 -6 -545 -6 l-529 0 0 70 0 70 536 -2 537
-3 20 -26z m-2845 -342 c1 -75 1 -137 -1 -137 -2 0 -46 17 -98 38 l-94 38 -5
138 c-3 76 -4 139 -2 141 2 1 47 -16 100 -40 l97 -42 3 -136z m307 15 l90 -37
3 -133 c1 -78 -1 -132 -7 -132 -5 0 -50 16 -100 36 l-91 37 0 133 c0 74 3 134
8 133 4 0 48 -17 97 -37z m2462 -4 c31 -29 30 -71 -1 -96 -24 -18 -43 -19
-398 -17 -438 3 -584 6 -544 12 19 3 25 7 17 12 -15 10 -22 61 -9 61 6 0 8 7
4 15 -3 9 1 16 12 17 9 1 -10 4 -43 8 -33 4 165 7 439 8 l500 2 23 -22z
m-5314 -84 c19 -31 40 -51 70 -63 36 -16 39 -20 22 -26 -79 -27 -94 -42 -120
-120 -6 -17 -12 -11 -35 36 -22 43 -37 59 -69 74 -23 10 -41 21 -41 24 0 3 19
15 42 26 42 20 47 28 75 115 4 12 7 12 16 -4 7 -10 24 -38 40 -62z m5218 -243
c35 -35 36 -52 7 -86 -27 -31 8 -29 -478 -25 -197 2 -324 6 -285 10 58 5 63 7
28 9 -24 2 -47 5 -53 6 -5 1 -15 3 -21 4 -6 0 -9 10 -6 21 3 11 1 18 -4 14 -5
-3 -9 2 -9 10 0 9 5 16 11 16 5 0 8 4 4 9 -3 5 5 12 17 14 13 2 4 5 -19 6 -23
0 -45 6 -48 11 -4 7 135 10 410 10 l417 0 29 -29z m-2703 -134 l32 -10 0 -139
c0 -76 -3 -138 -7 -138 -5 0 -50 14 -100 31 l-93 31 0 143 0 144 68 -26 c37
-14 82 -30 100 -36z m324 -118 c45 -18 89 -36 96 -42 13 -10 18 -257 5 -257
-5 0 -50 15 -100 32 l-93 33 0 133 c0 72 2 132 4 132 2 0 42 -14 88 -31z
m2285 -71 c31 -29 31 -81 1 -102 -19 -14 -72 -16 -393 -14 -203 0 -355 3 -337
5 28 4 47 23 22 23 -13 0 -32 74 -20 78 24 8 7 21 -32 25 -24 2 132 4 346 5
388 2 390 2 413 -20z m-4937 -85 c50 -109 89 -159 156 -198 24 -14 44 -29 44
-33 0 -4 -26 -16 -57 -27 -72 -25 -110 -72 -150 -185 -15 -44 -32 -79 -37 -77
-5 2 -22 37 -38 79 -38 100 -83 149 -168 182 -36 13 -65 30 -65 36 0 6 27 22
60 35 87 35 138 93 165 186 12 41 23 80 26 87 8 26 21 9 64 -85z m1836 -8 c1
-8 -2 -13 -7 -9 -5 3 -9 12 -9 21 0 19 13 9 16 -12z m-104 -27 c-12 -12 -35
-1 -27 12 3 5 13 6 21 3 10 -4 12 -9 6 -15z m-630 -109 c-13 -5 -21 -13 -18
-18 7 -11 -22 -23 -35 -15 -20 12 24 43 61 43 8 0 5 -4 -8 -10z m-185 -122 c0
-8 -6 -14 -13 -14 -7 0 -10 6 -7 14 3 7 8 13 12 13 4 0 8 -6 8 -13z m773 -145
l0 -139 -99 -26 c-55 -15 -104 -27 -110 -27 -7 0 -11 47 -11 140 l0 139 38 10
c20 5 62 16 92 25 97 25 90 35 90 -122z m580 110 l85 -29 3 -136 c1 -76 1
-137 0 -137 -2 0 -46 13 -98 28 l-95 28 -3 137 c-2 108 0 137 11 137 7 0 51
-13 97 -28z m-363 -84 c-2 -18 -4 -4 -4 32 0 36 2 50 4 33 2 -18 2 -48 0 -65z
m2333 -53 c0 -52 1 -98 3 -102 1 -5 -37 -9 -85 -11 l-88 -3 0 -59 0 -59 58 -3
57 -3 1 -62 2 -63 -57 0 c-32 0 -60 -2 -62 -4 -2 -3 -3 -25 -1 -50 l4 -46 84
0 84 0 0 -90 0 -90 -160 0 -160 0 0 363 c0 200 3 367 7 370 3 4 75 7 160 7
l153 0 0 -95z m-1575 21 l90 -32 2 -127 c1 -70 -2 -129 -6 -132 -5 -2 -48 8
-97 23 l-89 28 -3 137 c-1 75 1 137 5 136 4 0 49 -15 98 -33z m-2312 -280 c9
-19 25 -37 36 -41 28 -9 26 -19 -4 -33 -14 -7 -30 -23 -35 -37 -12 -32 -16
-31 -35 4 -8 16 -24 32 -35 36 -27 9 -25 19 5 33 16 8 28 23 31 42 8 39 17 38
37 -4z m997 -858 c64 -159 219 -582 342 -933 38 -110 85 -240 103 -290 18 -49
31 -93 28 -97 -2 -5 -67 -8 -143 -8 l-139 0 -54 166 -55 167 -256 1 -256 1
-15 -45 c-9 -25 -32 -94 -52 -155 -19 -60 -40 -116 -45 -122 -13 -16 -288 -19
-288 -3 0 5 100 294 221 642 122 348 226 648 231 666 l9 32 180 0 c177 0 180
0 189 -22z m1325 -2 c231 -67 324 -200 313 -446 -7 -133 -31 -199 -99 -275
-94 -102 -195 -135 -434 -144 l-170 -6 -3 -227 -2 -228 -135 0 -135 0 0 676 0
676 303 -5 c248 -3 313 -7 362 -21z m1485 -96 l0 -120 -195 0 -195 0 -2 -552
-3 -553 -135 0 -135 0 -3 553 -2 552 -185 0 -185 0 0 120 0 120 520 0 520 0 0
-120z m-4126 -1557 c18 -36 137 -345 134 -349 -2 -1 -21 -4 -42 -5 -38 -4 -40
-3 -54 39 l-14 42 -79 0 c-78 0 -80 -1 -89 -27 -18 -52 -26 -58 -61 -55 -19 2
-35 5 -37 7 -2 1 29 87 69 189 l72 186 43 0 c37 0 46 -4 58 -27z m494 7 c56
-34 76 -108 48 -175 -19 -43 -58 -63 -135 -67 l-61 -3 0 -57 0 -58 -40 0 -40
0 0 190 0 190 98 0 c80 0 103 -4 130 -20z m393 -30 c10 -25 42 -109 72 -187
l55 -143 -44 0 c-42 0 -44 1 -55 40 l-12 40 -82 0 -82 0 -12 -40 c-11 -38 -14
-40 -51 -40 -22 0 -40 4 -40 9 0 6 70 193 131 349 8 20 15 23 56 20 46 -3 48
-4 64 -48z m467 39 c43 -15 72 -65 72 -124 0 -40 -5 -52 -34 -81 l-34 -34 49
-65 50 -65 -49 0 c-49 0 -50 1 -91 60 -35 50 -47 60 -72 60 -29 0 -29 0 -29
-60 l0 -60 -40 0 -40 0 0 183 c0 101 3 187 7 190 11 11 177 8 211 -4z m492
-24 l0 -35 -55 0 -55 0 0 -155 0 -155 -40 0 -40 0 0 155 0 155 -55 0 c-54 0
-55 1 -55 28 0 16 3 32 7 35 3 4 71 7 150 7 l143 0 0 -35z m692 -7 c50 -143
73 -197 79 -191 4 5 25 58 47 118 l39 110 52 3 51 3 0 -190 0 -191 -40 0 -39
0 -3 117 -3 118 -39 -98 c-38 -93 -41 -97 -70 -97 -30 0 -32 4 -73 108 l-42
107 -1 -127 0 -128 -38 0 -38 0 -1 182 c-1 101 1 186 3 190 3 5 27 8 53 8 48
0 49 0 63 -42z m698 7 l0 -35 -80 0 -80 0 0 -29 c0 -16 -3 -36 -6 -45 -5 -14
5 -16 73 -16 44 0 82 -2 85 -5 2 -3 3 -18 0 -35 l-4 -30 -74 0 -74 0 0 -40 0
-40 85 0 85 0 0 -35 0 -35 -125 0 -125 0 0 190 0 190 120 0 120 0 0 -35z m276
-8 c17 -23 55 -78 85 -122 l54 -80 0 120 0 120 38 3 37 3 0 -190 0 -191 -33 0
c-31 0 -39 7 -89 78 -31 42 -70 100 -87 127 l-31 50 0 -127 0 -128 -40 0 -40
0 0 183 c0 101 3 187 7 190 3 4 20 7 37 7 25 -1 37 -9 62 -43z m662 6 l3 -33
-55 0 -56 0 0 -155 0 -155 -40 0 -40 0 0 155 0 155 -55 0 c-54 0 -55 1 -55 28
0 16 3 32 7 36 4 3 70 5 147 4 l141 -3 3 -32z m369 26 c65 -24 122 -109 123
-182 0 -79 -62 -168 -130 -187 -134 -37 -250 47 -250 182 0 118 74 198 182
198 26 0 59 -5 75 -11z m-2347 -136 c29 -76 61 -159 71 -185 l19 -48 -44 0
c-41 0 -43 1 -56 40 l-13 41 -80 -3 -80 -3 -12 -35 c-11 -32 -16 -35 -53 -38
-23 -2 -42 0 -42 4 0 7 129 344 136 356 3 4 27 8 53 8 l48 0 53 -137z"/>
<path d="M6443 8241 c-103 -35 -217 -146 -258 -251 -41 -105 -27 -278 31 -377
105 -182 353 -259 539 -168 100 49 146 94 194 187 39 76 45 97 49 168 9 154
-50 284 -167 373 -110 82 -267 110 -388 68z m222 -205 c58 -27 88 -57 110
-108 30 -74 10 -173 -46 -225 -78 -72 -236 -70 -300 3 -39 45 -51 85 -47 159
3 60 8 78 31 108 39 51 106 84 172 86 17 0 53 -10 80 -23z"/>
<path d="M3922 6300 c0 -14 2 -19 5 -12 2 6 2 18 0 25 -3 6 -5 1 -5 -13z"/>
<path d="M4438 6122 c-42 -15 -80 -30 -84 -34 -6 -6 118 32 176 55 13 5 13 5
0 5 -8 0 -50 -12 -92 -26z"/>
<path d="M4560 6001 l-5 -143 -100 -29 c-55 -16 -103 -29 -107 -29 -4 0 -9 64
-11 143 l-3 142 -2 -143 c-2 -117 1 -144 13 -148 13 -5 137 25 193 47 21 8 28
1 23 -25 -1 -5 5 -3 14 4 10 8 12 16 6 20 -6 3 -12 68 -13 155 l-3 150 -5
-144z"/>
<path d="M4080 6005 c-19 -7 -28 -14 -20 -14 8 0 29 6 45 14 39 17 21 18 -25
0z"/>
<path d="M3950 5960 c-8 -5 -10 -10 -5 -10 6 0 17 5 25 10 8 5 11 10 5 10 -5
0 -17 -5 -25 -10z"/>
<path d="M4753 5875 c0 -8 4 -12 9 -9 5 3 6 10 3 15 -9 13 -12 11 -12 -6z"/>
<path d="M4630 5820 c-9 -6 -10 -10 -3 -10 6 0 15 5 18 10 8 12 4 12 -15 0z"/>
<path d="M4268 5793 c7 -3 16 -2 19 1 4 3 -2 6 -13 5 -11 0 -14 -3 -6 -6z"/>
<path d="M4425 5790 c-3 -6 1 -7 9 -4 18 7 21 14 7 14 -6 0 -13 -4 -16 -10z"/>
<path d="M3742 5710 c0 -14 2 -19 5 -12 2 6 2 18 0 25 -3 6 -5 1 -5 -13z"/>
<path d="M3760 5600 c0 -5 5 -10 11 -10 5 0 7 5 4 10 -3 6 -8 10 -11 10 -2 0
-4 -4 -4 -10z"/>
<path d="M6990 6825 l0 -55 73 2 c39 1 55 3 35 5 -35 4 -49 19 -54 58 -3 26
-18 45 -35 45 -16 0 -19 -8 -19 -55z"/>
<path d="M7723 6543 c9 -2 23 -2 30 0 6 3 -1 5 -18 5 -16 0 -22 -2 -12 -5z"/>
<path d="M7128 6443 c7 -3 16 -2 19 1 4 3 -2 6 -13 5 -11 0 -14 -3 -6 -6z"/>
<path d="M7328 6443 c7 -3 16 -2 19 1 4 3 -2 6 -13 5 -11 0 -14 -3 -6 -6z"/>
<path d="M7718 6443 c7 -3 16 -2 19 1 4 3 -2 6 -13 5 -11 0 -14 -3 -6 -6z"/>
<path d="M7778 6443 c7 -3 16 -2 19 1 4 3 -2 6 -13 5 -11 0 -14 -3 -6 -6z"/>
<path d="M7323 6213 c9 -2 23 -2 30 0 6 3 -1 5 -18 5 -16 0 -22 -2 -12 -5z"/>
<path d="M7901 6166 c0 -11 -9 -29 -18 -40 -17 -20 -16 -20 6 0 14 13 21 29
18 40 -4 18 -5 18 -6 0z"/>
<path d="M7243 6113 c9 -2 25 -2 35 0 9 3 1 5 -18 5 -19 0 -27 -2 -17 -5z"/>
<path d="M7328 6113 c7 -3 16 -2 19 1 4 3 -2 6 -13 5 -11 0 -14 -3 -6 -6z"/>
<path d="M7378 6113 c12 -2 30 -2 40 0 9 3 -1 5 -23 4 -22 0 -30 -2 -17 -4z"/>
<path d="M7448 6113 c6 -2 18 -2 25 0 6 3 1 5 -13 5 -14 0 -19 -2 -12 -5z"/>
<path d="M7568 6113 c18 -2 45 -2 60 0 15 2 0 4 -33 4 -33 0 -45 -2 -27 -4z"/>
<path d="M7703 6113 c15 -2 39 -2 55 0 15 2 2 4 -28 4 -30 0 -43 -2 -27 -4z"/>
<path d="M7803 6113 c9 -2 23 -2 30 0 6 3 -1 5 -18 5 -16 0 -22 -2 -12 -5z"/>
<path d="M7133 5783 c9 -2 23 -2 30 0 6 3 -1 5 -18 5 -16 0 -22 -2 -12 -5z"/>
<path d="M7368 5783 c12 -2 30 -2 40 0 9 3 -1 5 -23 4 -22 0 -30 -2 -17 -4z"/>
<path d="M7458 5783 c17 -2 47 -2 65 0 17 2 3 4 -33 4 -36 0 -50 -2 -32 -4z"/>
<path d="M7603 5783 c9 -2 23 -2 30 0 6 3 -1 5 -18 5 -16 0 -22 -2 -12 -5z"/>
<path d="M7663 5783 c9 -2 23 -2 30 0 6 3 -1 5 -18 5 -16 0 -22 -2 -12 -5z"/>
<path d="M7723 5783 c9 -2 25 -2 35 0 9 3 1 5 -18 5 -19 0 -27 -2 -17 -5z"/>
<path d="M3949 3752 l-85 -267 175 -3 c95 -1 175 -1 177 0 3 4 -160 499 -172
521 -7 12 -32 -56 -95 -251z"/>
<path d="M5190 4030 l-35 -5 -3 -208 -2 -209 137 4 c163 4 216 23 261 91 31
46 41 143 23 200 -16 49 -65 94 -120 111 -48 15 -201 25 -261 16z"/>
<path d="M2822 2472 c-12 -38 -22 -71 -22 -75 0 -4 23 -7 51 -7 44 0 50 2 45
17 -4 9 -14 40 -23 67 -9 28 -19 54 -22 59 -4 4 -17 -24 -29 -61z"/>
<path d="M3250 2484 l0 -67 51 6 c63 8 79 20 79 63 0 42 -30 64 -87 64 l-43 0
0 -66z"/>
<path d="M3697 2472 c-10 -31 -20 -63 -23 -69 -4 -10 8 -13 45 -13 28 0 51 4
51 8 0 17 -42 132 -48 132 -4 0 -15 -26 -25 -58z"/>
<path d="M4120 2491 l0 -61 54 0 c57 0 70 8 81 50 10 41 -14 62 -79 68 l-56 4
0 -61z"/>
<path d="M7333 2540 c-33 -13 -63 -68 -63 -115 0 -58 30 -101 80 -116 37 -11
46 -10 77 6 131 71 43 280 -94 225z"/>
<path d="M4971 2472 c-12 -38 -21 -72 -21 -76 0 -3 22 -6 49 -6 l50 0 -25 72
c-13 39 -26 73 -28 76 -3 2 -14 -27 -25 -66z"/>
</g>
</svg>
